<svg width="40" height="40" viewBox="0 0 40 40" fill="none" xmlns="http://www.w3.org/2000/svg">
<path d="M26.6095 19.1459C26.622 18.156 26.8795 17.1854 27.358 16.3244C27.8365 15.4634 28.5206 14.74 29.3465 14.2215C28.8218 13.4563 28.1297 12.8266 27.325 12.3823C26.5203 11.9381 25.6253 11.6916 24.711 11.6624C22.7606 11.4533 20.8698 12.8541 19.8759 12.8541C18.8628 12.8541 17.3326 11.6831 15.6848 11.7178C14.619 11.7529 13.5803 12.0694 12.6698 12.6364C11.7594 13.2034 11.0083 14.0016 10.4898 14.9531C8.24352 18.9244 9.91901 24.7609 12.0707 27.9711C13.1473 29.543 14.4055 31.2988 16.0518 31.2366C17.6628 31.1683 18.2644 30.1875 20.2091 30.1875C22.1356 30.1875 22.7001 31.2366 24.3798 31.197C26.1085 31.1683 27.1977 29.6181 28.2364 28.0313C29.0099 26.9113 29.6052 25.6734 30 24.3635C28.9957 23.9297 28.1386 23.2037 27.5357 22.2758C26.9328 21.348 26.6106 20.2595 26.6095 19.1459Z" fill="#003462"/>
<path d="M23.5841 9.84898C24.6745 8.70832 25.2118 7.2422 25.0817 5.76196C23.4157 5.91443 21.8768 6.60823 20.7716 7.70513C20.2313 8.24099 19.8174 8.86439 19.5537 9.53971C19.29 10.215 19.1817 10.929 19.2348 11.6408C20.0681 11.6483 20.8925 11.4909 21.6458 11.1805C22.3992 10.8702 23.0619 10.4149 23.5841 9.84898Z" fill="#003462"/>
</svg>
