<svg width="40" height="40" viewBox="0 0 40 40" fill="none" xmlns="http://www.w3.org/2000/svg">
<path d="M27.5101 6.93591H12.6301C9.52069 6.93591 7 9.4566 7 12.566V27.446C7 30.5555 9.52069 33.0761 12.6301 33.0761H27.5101C30.6195 33.0761 33.1402 30.5555 33.1402 27.446V12.566C33.1402 9.4566 30.6195 6.93591 27.5101 6.93591Z" fill="#E14459"/>
<path d="M13.3721 8.64447C13.1749 8.64473 12.9859 8.72301 12.8466 8.86211C12.7073 9.0012 12.6292 9.18971 12.6294 9.38619C12.6296 9.58265 12.7081 9.771 12.8476 9.90982C12.9871 10.0486 13.1762 10.1266 13.3734 10.1265C13.5706 10.1264 13.7596 10.0483 13.899 9.90935C14.0384 9.77041 14.1167 9.58199 14.1168 9.38553V9.38404C14.1164 9.18758 14.0377 8.9993 13.8981 8.8606C13.7585 8.72191 13.5692 8.64414 13.3721 8.64441V8.64447ZM26.674 8.64447C26.4768 8.64473 26.2878 8.72302 26.1485 8.86211C26.0093 9.0012 25.9311 9.18971 25.9313 9.38619C25.9315 9.58267 26.01 9.77103 26.1495 9.90986C26.2891 10.0487 26.4782 10.1266 26.6754 10.1265C26.8726 10.1264 27.0616 10.0483 27.201 9.90932C27.3404 9.77037 27.4187 9.58197 27.4187 9.38553V9.38404C27.4183 9.18758 27.3397 8.9993 27.2 8.8606C27.0604 8.7219 26.8712 8.64414 26.674 8.64441V8.64447Z" fill="#C73148"/>
<path d="M13.3422 9.28359C13.0838 9.29746 13.0969 9.67336 13.0969 9.67336C14.4858 12.3781 17.0433 13.7048 19.9925 13.7049C22.9378 13.7006 25.5206 12.3593 26.9077 9.65813C26.9077 9.65813 26.9627 9.14949 26.4214 9.32579C24.9989 11.6836 22.609 13.0785 19.9942 13.0829C17.3745 13.0836 14.9932 11.7033 13.5679 9.34102C13.4759 9.29659 13.4019 9.2804 13.3422 9.28359ZM22.7424 19.7971L21.9522 22.1505L21.183 19.7989H20.4321L21.6444 23.2197H22.229L23.0209 20.9725L23.812 23.2197H24.4014L25.6111 19.7989H24.879L24.1084 22.1505L23.3182 19.7971H22.7424ZM18.5453 19.798L17.012 23.218H17.7328L18.0288 22.5559L18.0497 22.5059H19.6428L19.9549 23.218H20.6953L19.1761 19.818L19.1626 19.798L18.5453 19.798ZM29.6489 19.7984V23.2158H30.3457V19.7984L29.6489 19.7984ZM9.67114 19.7988V23.221H10.3775V21.8312H11.9718V23.221H12.6782V19.7989H11.9718V21.1796H10.3775V19.7989L9.67114 19.7988ZM15.9468 19.7997V21.7585C15.9468 22.3149 15.666 22.612 15.1557 22.612C14.6426 22.612 14.3599 22.3066 14.3599 21.735V19.8019H13.6539V21.7585C13.6539 22.7214 14.1983 23.2732 15.1466 23.2732C16.1039 23.2732 16.6527 22.7107 16.6527 21.7303V19.7997L15.9468 19.7997ZM26.1804 19.801V23.2184H28.8085V22.5955H26.8767V21.7481H28.1611V21.1248H26.8767V20.4244H28.7413V19.8011L26.1804 19.801ZM18.8443 20.664L19.3481 21.8098L19.3822 21.8886H18.3143L18.3479 21.8098L18.8443 20.664Z" fill="white"/>
</svg>
