<svg width="89" height="42" viewBox="0 0 89 42" fill="none" xmlns="http://www.w3.org/2000/svg">
<mask id="mask0" mask-type="alpha" maskUnits="userSpaceOnUse" x="49" y="2" width="40" height="38">
<path d="M61.3995 21.1416C61.4164 21.2036 61.4444 21.2656 61.4892 21.3159L69.3347 30.7602L50.5166 39.6697C50.4267 39.7147 50.3317 39.7317 50.2418 39.7317C50.0514 39.7317 49.8609 39.6472 49.7375 39.4954C49.547 39.2647 49.536 38.9325 49.7095 38.6904L61.3995 21.1416ZM50.2418 2.38281C50.3317 2.38281 50.4267 2.40559 50.5166 2.45036L88.562 20.4664C88.792 20.5734 88.9376 20.8039 88.9376 21.0574C88.9376 21.3106 88.792 21.5472 88.562 21.6539L70.1476 30.3719L62.3912 21.0346L70.1138 11.7371L69.2956 11.3487L61.4892 20.7533C61.4386 20.8097 61.4053 20.8828 61.394 20.9615L49.6982 3.40716C49.6227 3.29617 49.5858 3.17035 49.585 3.04505C49.5861 2.88585 49.6399 2.73565 49.743 2.61354C49.872 2.46731 50.0514 2.38281 50.2418 2.38281Z" fill="white"/>
</mask>
<g mask="url(#mask0)">
<path d="M61.3995 21.1416C61.4164 21.2036 61.4444 21.2656 61.4892 21.3159L69.3347 30.7602L50.5166 39.6697C50.4267 39.7147 50.3317 39.7317 50.2418 39.7317C50.0514 39.7317 49.8609 39.6472 49.7375 39.4954C49.547 39.2647 49.536 38.9325 49.7095 38.6904L61.3995 21.1416ZM50.2418 2.38281C50.3317 2.38281 50.4267 2.40559 50.5166 2.45036L88.562 20.4664C88.792 20.5734 88.9376 20.8039 88.9376 21.0574C88.9376 21.3106 88.792 21.5472 88.562 21.6539L70.1476 30.3719L62.3912 21.0346L70.1138 11.7371L69.2956 11.3487L61.4892 20.7533C61.4386 20.8097 61.4053 20.8828 61.394 20.9615L49.6982 3.40716C49.6227 3.29617 49.5858 3.17035 49.585 3.04505C49.5861 2.88585 49.6399 2.73565 49.743 2.61354C49.872 2.46731 50.0514 2.38281 50.2418 2.38281Z" fill="#003462"/>
<path d="M147.945 39.9583H49.4167V1.95825H147.945V39.9583Z" fill="url(#paint0_linear)"/>
</g>
<path d="M14.9987 17.2531H4.17884C3.80218 17.2567 3.49937 17.5618 3.50161 17.9356V18.081C3.49892 18.4551 3.80186 18.7608 4.17884 18.7643H14.9995C15.3768 18.7612 15.6803 18.4554 15.6776 18.081V17.9356C15.6789 17.5616 15.3756 17.2567 14.9987 17.2531ZM33.635 0H32.8153C32.454 0 32.1601 0.306115 32.1601 0.6825V0.827077C32.1601 1.20346 32.454 1.51038 32.8153 1.51038H33.635C33.9964 1.51038 34.291 1.20427 34.291 0.827077V0.6825C34.291 0.306115 33.9964 0 33.635 0ZM30.157 0H29.3373C28.9759 0 28.6821 0.306115 28.6821 0.6825V0.827077C28.6821 1.20346 28.9759 1.51038 29.3373 1.51038H30.157C30.5184 1.51038 30.813 1.20427 30.813 0.827077V0.6825C30.813 0.306115 30.5184 0 30.157 0ZM31.8052 3.01188H31.3462C31.128 3.01188 30.7626 3.09265 30.7626 3.63623V17.1651H26.7547L26.7538 3.63623C26.7538 3.09346 26.3884 3.01188 26.1702 3.01188H22.9836C19.1906 3.01188 17.0157 5.10462 17.0157 8.75296V13.1153C17.0157 16.7386 19.167 18.8305 22.9193 18.8556H25.0869C25.0169 20.9806 23.5924 22.1477 21.0594 22.1477C19.145 22.1477 18.1121 21.1405 18.1023 21.1308L18.0828 21.1139C17.9192 20.9927 17.7686 20.9467 17.6213 20.9717C17.4797 20.996 17.3527 21.088 17.246 21.2463L16.9815 21.6397C16.7691 21.9547 16.8195 22.2447 17.1272 22.4773C17.2591 22.6073 18.5052 23.7672 21.0586 23.7672C22.8534 23.7672 24.1362 23.2914 25.2163 22.2253C25.8813 21.5686 26.67 20.458 26.7221 18.8556L31.8036 18.8564C32.0217 18.8564 32.3872 18.7756 32.3872 18.232V3.63623C32.3888 3.09265 32.0234 3.01188 31.8052 3.01188ZM25.1284 4.63131V17.1643H22.9844C20.1844 17.1643 18.6428 15.7007 18.6428 13.0434V8.75215C18.6428 6.09485 20.1844 4.63131 22.9844 4.63131H25.1284Z" fill="#003462"/>
<path d="M4.20651 41.7222C1.65314 41.7222 0.406978 40.5623 0.275117 40.4323C-0.0325571 40.1989 -0.0830222 39.9097 0.12942 39.5947L0.393955 39.2022C0.500582 39.0438 0.626745 38.951 0.769187 38.9275C0.915699 38.9025 1.06709 38.9494 1.2307 39.0705L1.25023 39.0875C1.26 39.0972 2.29209 40.1044 4.20733 40.1044C6.61419 40.1044 7.92709 39.0269 8.21768 36.8122C6.06884 36.813 6.06395 36.8122 6.05581 36.8114C2.3157 36.7872 0.163606 34.6952 0.163606 31.0719V26.7096C0.163606 23.0612 2.3393 20.9685 6.13151 20.9685H9.31814C9.53628 20.9685 9.90174 21.0493 9.90174 21.5929L9.90256 35.1217H14.1433V21.5929C14.1433 21.0501 14.5087 20.9685 14.7269 20.9685H15.1859C15.4041 20.9685 15.7695 21.0493 15.7695 21.5929V36.1879C15.7695 36.7306 15.4041 36.8122 15.1859 36.8122L9.85942 36.813C9.71535 38.1958 9.20093 39.358 8.36582 40.1819C7.28407 41.2472 6.00209 41.7222 4.20651 41.7222ZM6.1307 22.5871C3.3307 22.5871 1.78907 24.0507 1.78907 26.708V30.9992C1.78907 33.6565 3.3307 35.1201 6.1307 35.1201H8.27465V22.5871H6.1307Z" fill="url(#paint1_linear)"/>
<path d="M13.5352 38.8862H12.7156C12.3981 38.8862 12.1377 39.1584 12.1377 39.492V39.6366C12.1377 39.9702 12.3973 40.2423 12.7156 40.2423H13.5352C13.8527 40.2423 14.1131 39.9702 14.1131 39.6366V39.492C14.1131 39.1584 13.8527 38.8862 13.5352 38.8862Z" fill="url(#paint2_linear)"/>
<path d="M17.0133 38.8862H16.1936C15.8762 38.8862 15.6157 39.1584 15.6157 39.492V39.6366C15.6157 39.9702 15.8754 40.2423 16.1936 40.2423H17.0133C17.3307 40.2423 17.5912 39.9702 17.5912 39.6366V39.492C17.5912 39.1584 17.3307 38.8862 17.0133 38.8862Z" fill="url(#paint3_linear)"/>
<defs>
<linearGradient id="paint0_linear" x1="49.4167" y1="20.9583" x2="147.945" y2="20.9583" gradientUnits="userSpaceOnUse">
<stop stop-color="#85C175"/>
<stop offset="0.25" stop-color="#00ADDE"/>
<stop offset="0.5" stop-color="#1C71B8"/>
<stop offset="0.75" stop-color="#3DAA36"/>
<stop offset="1" stop-color="#85C175"/>
</linearGradient>
<linearGradient id="paint1_linear" x1="0.103425" y1="31.3449" x2="17.1463" y2="31.3449" gradientUnits="userSpaceOnUse">
<stop stop-color="#86C175"/>
<stop offset="1" stop-color="#00ADDE"/>
</linearGradient>
<linearGradient id="paint2_linear" x1="0.103382" y1="39.5644" x2="17.1463" y2="39.5644" gradientUnits="userSpaceOnUse">
<stop stop-color="#86C175"/>
<stop offset="1" stop-color="#00ADDE"/>
</linearGradient>
<linearGradient id="paint3_linear" x1="0.103374" y1="39.5644" x2="17.1463" y2="39.5644" gradientUnits="userSpaceOnUse">
<stop stop-color="#86C175"/>
<stop offset="1" stop-color="#00ADDE"/>
</linearGradient>
</defs>
</svg>
