<svg width="88" height="64" viewBox="0 0 88 64" fill="none" xmlns="http://www.w3.org/2000/svg">
<path fill-rule="evenodd" clip-rule="evenodd" d="M50.4194 17.6496C50.5199 17.5354 50.6595 17.4695 50.8078 17.4695C50.8779 17.4695 50.9518 17.4873 51.0219 17.5222L80.6502 31.5835C80.8293 31.667 80.9427 31.8469 80.9427 32.0448C80.9427 32.2424 80.8293 32.427 80.6502 32.5104L66.3097 39.3146L60.2694 32.027L66.2834 24.7704L65.6462 24.4673L59.5669 31.8074C59.5275 31.8515 59.5016 31.9085 59.4927 31.9699L50.3845 18.269C50.3258 18.1823 50.297 18.0841 50.2964 17.9864V17.9801C50.2972 17.8621 50.3391 17.7449 50.4194 17.6496ZM50.4151 46.4354C50.2668 46.2553 50.2582 45.9961 50.3933 45.8071L59.497 32.1105C59.5102 32.1589 59.532 32.2073 59.5669 32.2465L65.6766 39.6177L51.0219 46.5715C50.9518 46.6066 50.8779 46.6198 50.8078 46.6198C50.6595 46.6198 50.5112 46.5539 50.4151 46.4354Z" fill="#003462"/>
<mask id="mask0" mask-type="alpha" maskUnits="userSpaceOnUse" x="50" y="17" width="31" height="30">
<path fill-rule="evenodd" clip-rule="evenodd" d="M50.4194 17.6496C50.5199 17.5354 50.6595 17.4695 50.8078 17.4695C50.8779 17.4695 50.9518 17.4873 51.0219 17.5222L80.6502 31.5835C80.8293 31.667 80.9427 31.8469 80.9427 32.0448C80.9427 32.2424 80.8293 32.427 80.6502 32.5104L66.3097 39.3146L60.2694 32.027L66.2834 24.7704L65.6462 24.4673L59.5669 31.8074C59.5275 31.8515 59.5016 31.9085 59.4927 31.9699L50.3845 18.269C50.3258 18.1823 50.297 18.0841 50.2964 17.9864V17.9801C50.2972 17.8621 50.3391 17.7449 50.4194 17.6496ZM50.4151 46.4354C50.2668 46.2553 50.2582 45.9961 50.3933 45.8071L59.497 32.1105C59.5102 32.1589 59.532 32.2073 59.5669 32.2465L65.6766 39.6177L51.0219 46.5715C50.9518 46.6066 50.8779 46.6198 50.8078 46.6198C50.6595 46.6198 50.5112 46.5539 50.4151 46.4354Z" fill="white"/>
</mask>
<g mask="url(#mask0)">
<rect width="76.7298" height="29.6585" transform="matrix(1 0 0 -1 50.1653 46.7966)" fill="url(#paint0_linear)"/>
</g>
<path d="M32.0808 31.0749H41.1985C41.4794 31.071 41.7045 30.8382 41.7029 30.5535V30.4282C41.7045 30.1434 41.4794 29.9107 41.1985 29.9067H32.0808C31.7994 29.9099 31.5734 30.1429 31.575 30.4282V30.5535C31.5734 30.8388 31.7994 31.0717 32.0808 31.0749Z" fill="white" stroke="white" stroke-width="0.5"/>
<path fill-rule="evenodd" clip-rule="evenodd" d="M28.2585 34.3519C27.3491 33.5251 26.0533 33.106 24.4065 33.106C21.0774 33.106 19.1678 34.7999 19.1678 37.7541V42.0682C19.1678 45.0224 21.0774 46.7164 24.4065 46.7164C26.0533 46.7164 27.3491 46.2972 28.2585 45.4704C29.1423 44.6667 29.6097 43.4898 29.6097 42.0682V37.7541C29.6097 36.3325 29.1423 35.1542 28.2585 34.3519ZM31.5748 41.8075C31.5748 44.8511 33.4447 46.5983 36.7056 46.5983C39.9537 46.5983 41.8207 44.8511 41.8164 41.8075V33.7412C41.8164 33.4084 41.6332 33.2255 41.2993 33.2255H40.8971C40.5632 33.2255 40.3799 33.4084 40.3799 33.7412V41.8075C40.3799 44.0372 39.0884 45.2644 36.7056 45.2644C34.3228 45.2644 33.0113 44.0372 33.0113 41.8075V33.7412C33.0113 33.4084 32.828 33.2255 32.4941 33.2255H32.1105C31.7609 33.2255 31.5748 33.4041 31.5748 33.7412V41.8075ZM12.5224 46.4657H12.906C13.2399 46.4657 13.4232 46.2814 13.4232 45.9486V41.1089L18.3337 34.0293L18.3451 34.012C18.4365 33.8764 18.4442 33.7 18.365 33.5568C18.2752 33.4202 18.1202 33.3427 17.9586 33.3537H17.5011C17.2155 33.3537 16.9995 33.3768 16.8134 33.6764L12.7241 39.6541L8.64622 33.6965C8.47714 33.3782 8.24838 33.3537 7.96421 33.3537H7.46974C7.30817 33.3427 7.15314 33.4202 7.06337 33.5568C6.98223 33.7033 6.99221 33.8842 7.08895 34.0206L11.9867 41.0916V45.9486C11.9867 46.2871 12.1714 46.4657 12.5224 46.4657ZM24.4136 45.3811C26.8433 45.3811 28.1803 44.2057 28.1803 42.0682V37.7541C28.1803 35.6195 26.8433 34.4412 24.4136 34.4412C21.9612 34.4412 20.6114 35.6166 20.6114 37.7541V42.0682C20.6114 44.2028 21.9612 45.3811 24.4136 45.3811Z" fill="url(#paint1_linear)"/>
<path fill-rule="evenodd" clip-rule="evenodd" d="M24.4065 17.1707C26.0533 17.1707 27.3491 17.5898 28.2585 18.4166C29.1422 19.2204 29.6097 20.3972 29.6097 21.8203V26.1285C29.6097 27.5517 29.1422 28.7285 28.2585 29.5322C27.3491 30.359 26.0533 30.7782 24.4065 30.7782C21.0774 30.7782 19.1677 29.0828 19.1677 26.1285V21.8203C19.1677 18.866 21.076 17.1707 24.4065 17.1707ZM24.4136 29.4415C26.8433 29.4415 28.1803 28.2676 28.1803 26.1285V21.8203C28.1803 19.6842 26.8433 18.5073 24.4136 18.5073C21.9612 18.5073 20.6113 19.6813 20.6113 21.8203V26.1285C20.6113 28.2647 21.9612 29.4415 24.4136 29.4415Z" fill="#003462"/>
<path d="M12.916 30.6775H12.5309C12.1814 30.6775 11.9967 30.4988 11.9967 30.1618V18.8992H8.32087C7.97702 18.8992 7.78662 18.7221 7.78662 18.3994V18.0825C7.78662 17.744 7.97133 17.5654 8.32087 17.5654H17.1075C17.4585 17.5654 17.6432 17.744 17.6432 18.0825V18.3994C17.6432 18.7221 17.4528 18.8992 17.1075 18.8992H13.4332V30.1618C13.4332 30.4945 13.2499 30.6775 12.916 30.6775Z" fill="#003462"/>
<defs>
<linearGradient id="paint0_linear" x1="0" y1="29.6585" x2="76.7298" y2="29.6585" gradientUnits="userSpaceOnUse">
<stop stop-color="#85C175"/>
<stop offset="0.25" stop-color="#00ADDE"/>
<stop offset="0.5" stop-color="#1C71B8"/>
<stop offset="0.75" stop-color="#3DAA36"/>
<stop offset="1" stop-color="#85C175"/>
</linearGradient>
<linearGradient id="paint1_linear" x1="7.00938" y1="46.7141" x2="41.8165" y2="46.7141" gradientUnits="userSpaceOnUse">
<stop stop-color="#86C175"/>
<stop offset="1" stop-color="#00ADDE"/>
</linearGradient>
</defs>
</svg>
